<svg width="34" height="41" viewBox="0 0 34 41" fill="none" xmlns="http://www.w3.org/2000/svg">
<path d="M24.5 25.5C24.5 25.8978 24.342 26.2793 24.0607 26.5606C23.7794 26.8419 23.3978 27 23 27H11C10.6022 27 10.2206 26.8419 9.93934 26.5606C9.65804 26.2793 9.5 25.8978 9.5 25.5C9.5 25.1021 9.65804 24.7206 9.93934 24.4393C10.2206 24.158 10.6022 24 11 24H23C23.3978 24 23.7794 24.158 24.0607 24.4393C24.342 24.7206 24.5 25.1021 24.5 25.5ZM23 18H11C10.6022 18 10.2206 18.158 9.93934 18.4393C9.65804 18.7206 9.5 19.1021 9.5 19.5C9.5 19.8978 9.65804 20.2793 9.93934 20.5606C10.2206 20.8419 10.6022 21 11 21H23C23.3978 21 23.7794 20.8419 24.0607 20.5606C24.342 20.2793 24.5 19.8978 24.5 19.5C24.5 19.1021 24.342 18.7206 24.0607 18.4393C23.7794 18.158 23.3978 18 23 18ZM33.5 5.99997V37.5C33.5 38.2956 33.1839 39.0587 32.6213 39.6213C32.0587 40.1839 31.2956 40.5 30.5 40.5H3.5C2.70435 40.5 1.94129 40.1839 1.37868 39.6213C0.81607 39.0587 0.5 38.2956 0.5 37.5V5.99997C0.5 5.20432 0.81607 4.44126 1.37868 3.87865C1.94129 3.31604 2.70435 2.99997 3.5 2.99997H10.2988C11.1416 2.05633 12.1742 1.30133 13.329 0.784394C14.4838 0.267458 15.7348 0.000244141 17 0.000244141C18.2652 0.000244141 19.5162 0.267458 20.671 0.784394C21.8258 1.30133 22.8584 2.05633 23.7013 2.99997H30.5C31.2956 2.99997 32.0587 3.31604 32.6213 3.87865C33.1839 4.44126 33.5 5.20432 33.5 5.99997ZM11 8.99997H23C23 7.40867 22.3679 5.88255 21.2426 4.75733C20.1174 3.63211 18.5913 2.99997 17 2.99997C15.4087 2.99997 13.8826 3.63211 12.7574 4.75733C11.6321 5.88255 11 7.40867 11 8.99997ZM30.5 5.99997H25.4844C25.8256 6.96338 26 7.97793 26 8.99997V10.5C26 10.8978 25.842 11.2793 25.5607 11.5606C25.2794 11.8419 24.8978 12 24.5 12H9.5C9.10218 12 8.72064 11.8419 8.43934 11.5606C8.15804 11.2793 8 10.8978 8 10.5V8.99997C8.00003 7.97793 8.17441 6.96338 8.51562 5.99997H3.5V37.5H30.5V5.99997Z" fill="#DDD2EF"/>
</svg>
